<svg xmlns="http://www.w3.org/2000/svg" width="256" height="256"><path fill-opacity=".016" d="M0 128.004v128.004l128.25-.254 128.25-.254.254-127.75L257.008 0H0v128.004m.485.496c0 70.4.119 99.053.265 63.672.146-35.38.146-92.98 0-128C.604 29.153.485 58.1.485 128.5" fill="#1976D2" fill-rule="evenodd"/><path fill-opacity=".271" d="M114.211 1.7c-1.984 1.383-2.633 1.412-4.862.219-2.385-1.276-2.731-1.178-4.748 1.352-2.232 2.799-4.977 3.548-6.135 1.674-1.235-1.998-3.791-.438-5.008 3.055-.75 2.153-1.746 3.346-2.588 3.101-5.372-1.566-6.779-1.313-7.444 1.339-.367 1.459-.424 2.895-.128 3.192.296.296.09 1.824-.457 3.395-.773 2.215-1.71 2.927-4.169 3.165-2.774.269-3.148.653-2.984 3.058.115 1.669-.316 2.75-1.095 2.75-1.958 0-4.714 3.521-4.07 5.199.401 1.044-1.899 3.088-7.726 6.863-11.311 7.329-27.746 24.03-34.639 35.198-6.786 10.995-11.534 21.981-14.879 34.427-2.382 8.865-2.644 11.601-2.708 28.313-.062 16.355.203 19.544 2.284 27.5 7.742 29.591 24.966 54.521 48.764 70.58 8.312 5.609 22.298 12.553 27.295 13.553l3.086.617v-42.076l3 1.132 3 1.132v42.219l5.25 1.292c7.637 1.88 32.054 2.525 41.938 1.107 9.655-1.384 25.902-6.559 34.983-11.141 30.673-15.479 52.85-43.539 61.974-78.415 2.081-7.956 2.346-11.145 2.284-27.5-.064-16.712-.326-19.448-2.708-28.313C235.879 87.952 226.645 71.81 211 55.981c-9.343-9.452-18.272-16.299-28.98-22.221-2.986-1.651-3.112-1.962-2.487-6.131.778-5.185-.148-6.102-5.822-5.767-2.518.149-3.656-.142-3.234-.825.359-.58.352-2.001-.015-3.157-.577-1.817-1.194-2.019-4.541-1.483l-3.874.619.622-3.109c.774-3.874-.611-4.859-5.847-4.156-3.249.435-4.387.089-6.623-2.018-2.644-2.493-7.142-3.584-22.199-5.388-2.475-.296-4.927-.945-5.45-1.442-1.462-1.39-5.795-.976-8.339.797M114 128c.986 1.842 2.094 2 14 2s13.014-.158 14-2c1.048-1.959.76-2-14-2s-15.048.041-14 2m45.728 81.426l-2.772.975.272 17.942c.238 15.707.486 18.076 1.994 19.027 3.397 2.14 3.833-.31 3.55-19.967l-.272-18.953-2.772.976" fill="#1976D2" fill-rule="evenodd"/><path fill-opacity=".421" d="M114.384 2.03c-2.759 1.768-3.261 1.823-4.373.484-1.788-2.156-3.751-1.873-5.126.736-1.739 3.304-2.96 3.763-5.927 2.228C96.016 3.957 94 5.014 94 8.078c0 2.784-2.521 4.249-5.014 2.914C85.646 9.205 84 10.455 84 14.777c0 4.798-1.641 7.009-5.5 7.411-2.546.265-2.974.71-2.829 2.937.126 1.93-.499 2.931-2.356 3.777-2.22 1.012-2.448 1.574-1.876 4.625.498 2.656.313 3.473-.787 3.473-1.824 0-2.925 2.713-1.466 3.615.734.454.928 3.861.584 10.282-.283 5.282-.234 13.428.108 18.103l.622 8.5-3.75 3.595L63 84.69v10.751c0 12.151 1.209 15.481 6.54 18.011 2.67 1.267 3.313 2.33 4.394 7.266 1.698 7.751 6.068 16.692 11.134 22.782 4.153 4.991 12.425 11.827 16.682 13.786 3.66 1.684 2.615 3.393-2.5 4.087-13.923 1.889-23.977 8.163-26.173 16.333-1 3.721-1.82 4.573-7.121 7.398C55.813 190.51 38 208.773 38 213.766c0 2.255 13.395 14.888 22.327 21.055 6.989 4.827 22.779 12.961 28.423 14.643l2.25.671v-22.068c0-12.137.247-22.067.55-22.067.302 0 1.868.682 3.48 1.516l2.931 1.515.27 21.735.269 21.734 6 1.237c3.3.68 10.765 1.532 16.59 1.893 32.253 2.001 64.928-10.252 88.6-33.224 4.02-3.902 7.31-7.79 7.31-8.64 0-4.993-17.813-23.256-27.956-28.662-5.301-2.825-6.121-3.677-7.121-7.398-2.196-8.17-12.25-14.444-26.173-16.333-4.923-.668-6.411-2.711-2.807-3.855 3.22-1.022 12.665-8.828 17.041-14.084 5.017-6.026 9.389-14.988 11.082-22.716 1.081-4.936 1.724-5.999 4.394-7.266 5.303-2.517 6.54-5.878 6.54-17.78 0-9.809-.172-10.722-2.544-13.542-1.399-1.663-3.39-3.292-4.423-3.62-1.619-.513-1.806-1.319-1.351-5.803.718-7.069-1.162-16.525-3.857-19.393-2.164-2.304-2.164-2.314-.108-2.314 1.392 0 2.28-.85 2.72-2.605.83-3.306-.277-11.068-2.086-14.633-.765-1.506-1.269-4.656-1.12-7l.269-4.262-4.812.067c-4.474.062-4.774-.088-4.26-2.136.828-3.3-1.637-4.902-5.482-3.562l-3.097 1.079.326-3.724.325-3.724-5.166.272c-4.733.249-5.345.021-7.288-2.707-1.467-2.061-2.957-2.975-4.833-2.966-1.492.006-5.188-.482-8.213-1.085-3.025-.603-7.075-1.212-9-1.354-1.925-.141-4.483-.798-5.684-1.459-2.978-1.637-4.298-1.499-7.932.829M113 126.3c0 3.098 2.44 3.7 15 3.7s15-.602 15-3.7c0-1.009-3.359-1.3-15-1.3s-15 .291-15 1.3m46.729 81.283l-2.772 1.503.272 19.194c.248 17.558.424 19.224 2.069 19.54 4.319.83 4.702-.956 4.702-21.942 0-10.933-.338-19.86-.75-19.838-.412.022-1.997.716-3.521 1.543" fill="#1976D2" fill-rule="evenodd"/><path fill-opacity=".603" d="M115 2c-3.014 2.358-3.861 2.436-5.944.551-1.76-1.593-2.968-1.091-4.687 1.949-1.136 2.008-2.988 2.267-7.064.985-1.872-.588-2.325-.196-3.081 2.663-.907 3.433-1.308 3.584-7.221 2.718-2.042-.299-2.546.089-2.769 2.134-.91 8.327-1.22 9-4.157 9-3.096 0-5.91 2.367-4.126 3.47C77.744 26.578 77.119 27.708 74 29c-3.069 1.271-3.876 3.724-1.882 5.718.824.824.561 1.466-1 2.44C69.093 38.423 68.176 41 69.75 41c.412 0 .75 8.302.75 18.449 0 13.161.349 18.799 1.217 19.668 1.752 1.752 2.092.303 3.194-13.617.522-6.6 1.211-12.676 1.531-13.503.771-1.99 7.726-6.312 14.558-9.047 11.383-4.556 19.127-6.069 34.023-6.645 20.512-.794 26.068.32 41.683 8.359 6.897 3.551 13.159 6.218 13.917 5.927 2.012-.772 1.75-9.578-.473-15.905-1.275-3.627-1.581-5.992-.985-7.604 1.363-3.684-.717-5.376-5.69-4.631l-4.139.621.46-3.134.46-3.135-4.367.348-4.367.349.32-3.795.319-3.795-4.923.653c-4.534.601-5.091.439-7.054-2.057-2.087-2.652-3.621-3.103-12.848-3.775-1.741-.127-3.503-.569-3.917-.981-.414-.413-2.59-.766-4.836-.785-2.245-.02-5.208-.679-6.583-1.465-3.283-1.877-4.03-1.823-7 .5m58.219 49.75c2.58 5.011 3.991 9.51 5.254 16.755.83 4.762 1.795 9.119 2.143 9.683 1.296 2.097 2.353-1.82 2.345-8.688-.011-9.231-1.323-14.503-4.151-16.678-2.277-1.752-6.342-2.532-5.591-1.072M92.007 69.593C87.978 71.34 84 74.8 84 76.557c0 .923.923.891 3.895-.133 5.363-1.848 20.455-3.621 23.831-2.799 2.77.673 2.771.671.874-1.47-3.616-4.081-14.086-5.384-20.593-2.562m56.412-.518c-1.695.492-3.945 1.869-5 3.06l-1.919 2.164 2.774-.674c3.376-.822 18.468.951 23.831 2.799 4.587 1.581 5.278.224 1.631-3.202-4.966-4.665-13.688-6.362-21.317-4.147M99.228 86.23C94.071 88.716 96.178 97 101.966 97c3.084 0 6.034-3.007 6.034-6.15 0-1.565-4.453-5.94-5.885-5.782-.338.037-1.637.56-2.887 1.162m51 0C145.051 88.726 147.18 97 153 97c6.016 0 7.925-8.346 2.477-10.829-1.414-.644-2.662-1.141-2.774-1.103-.112.037-1.225.56-2.475 1.162m-39.978 39.488c-1.816.652-1.535 3.804.736 8.254 2.552 5.002 3.121 5.292 7.158 3.646 4.028-1.642 16.379-1.479 19.627.259 1.249.669 2.717.939 3.264.601 1.517-.937 4.965-8.145 4.965-10.379 0-3.016-1.886-3.529-2.925-.796-1.275 3.353-2.693 3.697-15.223 3.697-11.061 0-14.852-.887-14.852-3.476 0-1.707-1.069-2.409-2.75-1.806m-14.297 36.775c-12.711 2.535-21.11 8.499-22.515 15.986-.57 3.038-1.476 3.957-6.583 6.679-8.756 4.667-18.54 13.385-24.241 21.601l-5.038 7.259 6.462 6.565c11.49 11.672 25.824 21.06 41.712 27.319l5.25 2.069v-22.569c0-12.413.338-22.404.75-22.203.412.201 1.987.985 3.5 1.744l2.75 1.378v21.772c0 19.872.153 21.817 1.75 22.288 10.533 3.102 34.409 3.96 47.25 1.696 15.795-2.783 33.757-10.087 47.134-19.165 3.501-2.376 10.191-8.02 14.866-12.541l8.5-8.221-5.076-7.325c-5.732-8.272-15.495-16.985-24.279-21.667-5.107-2.722-6.013-3.641-6.583-6.679-1.343-7.161-8.984-12.883-20.562-15.399-11.318-2.459-9.999-3.731-10.01 9.651-.008 10.272-.31 12.405-2.367 16.769-2.81 5.958-5.575 8.674-11.623 11.416-6.122 2.775-13.219 2.668-19.5-.293-10.387-4.899-13.447-11.227-13.478-27.873-.012-6.463-.36-11.708-.772-11.656-.412.052-3.696.681-7.297 1.399m63.799 44.348l-2.748 1.659-.002 19.2c-.002 17.138.183 19.304 1.722 20.166 1.094.612 2.374.617 3.5.014 1.615-.864 1.776-2.856 1.776-21.915 0-11.531-.338-20.924-.75-20.874-.412.051-1.987.838-3.498 1.75" fill="#1976D2" fill-rule="evenodd"/></svg>